<svg id="Layer_1" data-name="Layer 1" xmlns="http://www.w3.org/2000/svg" viewBox="0 0 256.11 55.52"><defs><style>.cls-1{fill:#f9b605;}.cls-2{fill:#3fbdf0;}.cls-3{fill:#333b47;}</style></defs><title>logo</title><circle class="cls-1" cx="18.51" cy="27.76" r="18.51"/><circle class="cls-2" cx="51.82" cy="27.76" r="27.76"/><path class="cls-3" d="M612,295.54c0-1.25.32-1.48,1.48-1.48H614c1.24,0,1.48.23,1.48,1.48v11c1.2-2.27,3.6-3.38,7.21-3.38,6.38,0,9.58,3.24,9.58,9.76v4.3c0,6.43-3.15,9.67-10.13,9.67-6.76,0-10.13-3.24-10.13-9.67Zm16.74,17.34c0-4.48-1.57-6.43-6.61-6.43s-6.66,2-6.66,6.43v4.3c0,4.45,1.61,6.44,6.66,6.44s6.61-2,6.61-6.44Z" transform="translate(-514.89 -279.86)"/><path class="cls-3" d="M654.58,319.59c0,5.14-3,7.31-9.66,7.31-5.32,0-8.7-2.13-8.7-6.94s3.15-6.75,9.44-6.75h5.46v-2.78c0-3.14-2.13-4.21-6.06-4.21a22.33,22.33,0,0,0-5.09.51c-1.11.23-1.48,0-1.48-1.16v-.37c0-1.06.27-1.34,1.39-1.57a24.34,24.34,0,0,1,5-.46c6.48,0,9.71,2.4,9.71,7.26Zm-3.46-3.65H645.7c-4.11,0-6,1.11-6,4,0,2.64,1.71,3.93,5.18,3.93,4.26,0,6.25-1,6.25-4.44Z" transform="translate(-514.89 -279.86)"/><path class="cls-3" d="M663.05,325c0,1.25-.23,1.48-1.48,1.48h-.5c-1.16,0-1.48-.23-1.48-1.48V311.82c0-5.78,3.23-8.65,9.66-8.65,6.8,0,9.62,3.05,9.62,8.65V325c0,1.25-.23,1.48-1.48,1.48h-.55c-1.25,0-1.48-.23-1.48-1.48V311.82c0-3.7-1.44-5.37-6.11-5.37s-6.2,1.72-6.2,5.37Z" transform="translate(-514.89 -279.86)"/><path class="cls-3" d="M684.8,295.54c0-1.25.32-1.48,1.48-1.48h.51c1.25,0,1.48.23,1.48,1.48V325c0,1.25-.23,1.48-1.48,1.48h-.51c-1.16,0-1.48-.23-1.48-1.48ZM697,305a3.74,3.74,0,0,1,3.28-1.39h.56c1.52,0,1.66.28.6,1.39l-7.22,7.59a2.9,2.9,0,0,0-1,1.75,2.63,2.63,0,0,0,.92,1.81l8.19,8.83c1.11,1.21.93,1.44-.6,1.44h-.55a3.58,3.58,0,0,1-3.29-1.44l-6.2-6.7a6,6,0,0,1-1.89-4,5.62,5.62,0,0,1,1.89-3.75Z" transform="translate(-514.89 -279.86)"/><path class="cls-1" d="M706.81,313.16v-5.57c0-9.07,4.85-14,14.9-14,10.3,0,14.77,4.67,14.77,14v5.57c0,9-4.86,14-14.77,14C711.34,327.15,706.81,322.48,706.81,313.16Zm23-5.57c0-5.45-1.81-7.78-8.09-7.78s-8.23,2.33-8.23,7.78v5.57c0,5.37,1.81,7.71,8.23,7.71s8.09-2.27,8.09-7.71Z" transform="translate(-514.89 -279.86)"/><path class="cls-2" d="M749.49,323.52c0,2.33-.58,2.92-2.91,2.92h-.84c-2.34,0-2.92-.59-2.92-2.92V306.16c0-8.36,4.73-12.57,14.12-12.57,9.85,0,14.06,4.21,14.06,12.57v17.36c0,2.33-.58,2.92-2.92,2.92h-.84c-2.33,0-2.91-.59-2.91-2.92V306.16c0-4.41-1.62-6.35-7.39-6.35s-7.45,1.94-7.45,6.35Z" transform="translate(-514.89 -279.86)"/></svg>