<svg id="Layer_1" data-name="Layer 1" xmlns="http://www.w3.org/2000/svg" viewBox="0 0 85.93 18.13"><defs><style>.cls-1{fill:#f9f9f9;}.cls-2{fill:#f9b605;}.cls-3{fill:#3fbdf0;}</style></defs><title>logo-text</title><path class="cls-1" d="M506.21,249.09c0-.67.18-.8.8-.8h.28c.67,0,.8.13.8.8V255c.65-1.23,2-1.82,3.9-1.82,3.44,0,5.17,1.74,5.17,5.27v2.32c0,3.48-1.7,5.23-5.47,5.23s-5.48-1.75-5.48-5.23Zm9.05,9.37c0-2.42-.85-3.47-3.57-3.47s-3.6,1.07-3.6,3.47v2.33c0,2.4.87,3.47,3.6,3.47s3.57-1.07,3.57-3.47Z" transform="translate(-506.21 -248.04)"/><path class="cls-1" d="M529.23,262.09c0,2.77-1.62,4-5.22,4-2.87,0-4.7-1.15-4.7-3.75s1.7-3.65,5.1-3.65h3v-1.5c0-1.7-1.15-2.28-3.27-2.28a11.64,11.64,0,0,0-2.75.28c-.6.12-.8,0-.8-.63v-.2c0-.57.15-.72.75-.84a12.65,12.65,0,0,1,2.7-.25c3.49,0,5.24,1.29,5.24,3.92Zm-1.87-2h-2.92c-2.23,0-3.25.6-3.25,2.18,0,1.42.92,2.12,2.8,2.12,2.3,0,3.37-.52,3.37-2.4Z" transform="translate(-506.21 -248.04)"/><path class="cls-1" d="M533.81,265c0,.67-.12.8-.8.8h-.27c-.63,0-.8-.13-.8-.8v-7.1c0-3.13,1.75-4.67,5.22-4.67,3.67,0,5.2,1.64,5.2,4.67V265c0,.67-.13.8-.8.8h-.3c-.68,0-.8-.13-.8-.8v-7.1c0-2-.78-2.9-3.3-2.9s-3.35.92-3.35,2.9Z" transform="translate(-506.21 -248.04)"/><path class="cls-1" d="M545.56,249.09c0-.67.18-.8.8-.8h.28c.67,0,.8.13.8.8V265c0,.67-.13.8-.8.8h-.28c-.62,0-.8-.13-.8-.8Zm6.57,5.12a2.05,2.05,0,0,1,1.78-.74h.3c.82,0,.9.15.32.74l-3.9,4.1a1.59,1.59,0,0,0-.52.95,1.41,1.41,0,0,0,.5,1L555,265c.6.65.5.78-.32.78h-.3a1.94,1.94,0,0,1-1.78-.78l-3.34-3.62a3.24,3.24,0,0,1-1-2.18,3,3,0,0,1,1-2Z" transform="translate(-506.21 -248.04)"/><path class="cls-2" d="M557.45,258.61v-3c0-4.9,2.63-7.56,8-7.56,5.57,0,8,2.52,8,7.56v3c0,4.87-2.62,7.56-8,7.56C559.9,266.17,557.45,263.65,557.45,258.61Zm12.43-3c0-2.94-1-4.2-4.38-4.2s-4.44,1.26-4.44,4.2v3c0,2.91,1,4.17,4.44,4.17s4.38-1.23,4.38-4.17Z" transform="translate(-506.21 -248.04)"/><path class="cls-3" d="M580.52,264.21c0,1.26-.32,1.58-1.58,1.58h-.45c-1.26,0-1.58-.32-1.58-1.58v-9.38c0-4.51,2.56-6.79,7.63-6.79,5.32,0,7.6,2.28,7.6,6.79v9.38c0,1.26-.32,1.58-1.58,1.58h-.45c-1.26,0-1.58-.32-1.58-1.58v-9.38c0-2.38-.87-3.43-4-3.43s-4,1-4,3.43Z" transform="translate(-506.21 -248.04)"/></svg>